<svg height="512" viewBox="0 0 512 512" width="512" xmlns="http://www.w3.org/2000/svg"><g fill="none"><g transform="translate(185.507246 254.641509)"><path d="m0 94.583469 93.8344889-94.00738559 59.5086231-.57608341-94.6265816 94.8009381z" fill="#40c4ff"/><path d="m153.343112 94.583469-93.8344886-94.00738559-59.5086234-.57608341 94.6265819 94.8009381z" fill="#01579b"/><path d="m76.6711739 17.7708868 29.4670001 29.521-29.4670001 29.521-29.467-29.521z" fill="#00b0ff"/></g><g transform="translate(356.173913 161.014895)"><path d="m47.2232111 141.833246 46.6112778-46.6971626 59.5086231-.5760834-76.6721659 76.81344z" fill="#ff5ca4"/><path d="m153.343112 189.143469-93.8344886-94.0073856-59.5086234-.5760834 94.6265819 94.800938z" fill="#c51162"/><path d="m76.6706314 112.330887 29.4659706 29.520264-29.4656559 29.522289-29.447735-29.540194z" fill="#ff99c6"/><path d="m0 94.56 93.8344889-93.98391659 59.5086231-.57608341-93.8344886 95.1360834z" fill="#ff5ca4"/></g><g transform="translate(0 161.716981)"><path d="m41.6723479 187.295318v-88.9767644l-41.6723479-42.5638366v90.099017z" fill="#01579b"/><path d="m0 .02504802 41.815324 42.34384908h27.6316489c13.6522455 0 54.4638401 5.4951032 54.4638401 49.0051881 0 43.5100848-21.487027 58.7872648-54.4638401 58.7872648-8.1900492 0-17.4482576 0-27.774625 0v37.133968h27.774625c21.7951632 0 100.5289991-5.99172 100.5289991-95.9212328 0-59.9530083-33.509666-90.41103668-100.5289991-91.3740852z" fill="#46d0fe"/><path d="m0 .02504802 41.815324 42.34384908h27.6316489c13.6522455 0 54.4638401 5.4951032 54.4638401 49.0051881 0 43.5100848-21.487027 58.7872648-54.4638401 58.7872648-8.1900492 0-17.4482576 0-27.774625 0v37.133968h27.774625c21.7951632 0 100.5289991-5.99172 100.5289991-95.9212328 0-59.9530083-33.509666-90.41103668-100.5289991-91.3740852z" fill="#40c4ff"/><path d="m41.6723479 187.295318v-37.133968c24.163785 24.586669 36.2456775 36.880004 36.2456775 36.880004-2.3327655.169309-14.414658.253964-36.2456775.253964z" fill="#00b0ff"/></g><path d="m45.0465345 25.1106884h16.5719106v-7.6146609h-16.5719106v-8.2238338h20.6107128v-7.61466089h-29.0515957v39.16111319h29.3187122v-7.6146609h-20.8778293zm31.4449599-19.12367697c-8.0670163 8.32674337-8.114494 21.69197857-.1068466 30.07791057 3.9391454 3.930429 9.2738102 6.0691754 14.7875721 5.9285574 6.9343455 0 12.3514691-2.1756174 16.1124701-6.3528028l.192324-.2175618v-17.9814778h-16.7214959v7.2774402h8.7186841v7.3427088c-2.5519974 1.4665006-5.4473423 2.1996806-8.376775 2.1212269-5.1252384-.2504467-9.6284506-3.5411937-11.5014517-8.4047488-1.873001-4.863555-.7667186-10.3934944 2.8255063-14.1237693 2.4902916-2.40917808 5.8187752-3.71223835 9.2529172-3.62240301 1.7146838-.03209179 3.4236803.21017894 5.0645297.71795374 1.4932786.52870619 2.8746057 1.34076217 4.0708563 2.39317917l4.679882-6.01558214c-2.468157-2.1756174-6.9129764-5.12357897-14.3067625-5.12357897-5.4903905-.11078544-10.7906552 2.04770087-14.6914101 5.98294784zm-60.7743568-4.3512348h-15.7171376v39.16111317h8.46225221v-11.7483339h6.41079709c8.6225222 0 15.5569287-4.6993336 15.5569287-13.7716582v-.1087808c.0213084-8.01715016-5.5774545-13.55409644-14.7128404-13.55409644zm6.1543653 13.81517047c0 3.3504508-2.4681569 5.9285574-6.699283 5.9285574h-6.70996769v-11.96589566h6.53901309c4.2738647 0 6.8702376 2.06683656 6.8702376 5.92855736zm123.3864751-12.13994507h.406018c.1839-.01673271.368052.02918221.523548.13053705.124065.09787178.188892.25462241.170955.4133673.005117.16130259-.066493.31521604-.192324.41336731-.13815.11482029-.313419.17300814-.491495.1631713h-.416702zm.502179-1.69698157c-1.166816 0-2.21874.71559742-2.665261 1.8131103-.446522 1.09751288-.199706 2.36080485.625358 3.20080484s2.065893 1.09128439 3.143891.63667967 1.780871-1.52557194 1.780871-2.71351132c0-1.62210642-1.291595-2.93708349-2.884859-2.93708349zm2.478842 2.93708349c0 1.02613557-.607725 1.95102137-1.53931 2.34268248-.931585.3916611-2.003207.17281072-2.714359-.55433542-.711151-.72714614-.921499-1.81909972-.532799-2.76585554s1.299746-1.56148981 2.307626-1.5571093c1.370753.00601313 2.478842 1.13903719 2.478842 2.53461778zm-2.981021 1.68610348v-1.32712661h.523549l.758611 1.32712661h.641079l-.876142-1.42502939c.187522-.06540676.348876-.19147836.459441-.35897687.107072-.16427918.162933-.3576437.16027-.55478244.023545-.28862259-.082519-.57258116-.288486-.77234418-.273786-.19629138-.60649-.28867144-.940251-.26107409h-1.004358v3.42659741zm-17.383945-4.62318697-16.368902 39.16111314h8.54773l3.4832-8.7024696h16.176578l3.493884 8.7024696h8.793477l-16.368902-39.16111314zm-1.314213 22.84398264 5.075214-12.6185809 5.075215 12.6185809z" fill="#1f2555" transform="translate(186 158)"/></g></svg>