<?xml version="1.0" encoding="utf-8"?>
<!-- Generator: Adobe Illustrator 22.1.0, SVG Export Plug-In . SVG Version: 6.00 Build 0)  -->
<!DOCTYPE svg PUBLIC "-//W3C//DTD SVG 1.1//EN" "http://www.w3.org/Graphics/SVG/1.1/DTD/svg11.dtd">
<svg version="1.1" id="Layer_1" xmlns="http://www.w3.org/2000/svg" xmlns:xlink="http://www.w3.org/1999/xlink" x="0px" y="0px"
     viewBox="0 0 66.4 18" xml:space="preserve">
    <title>Pega text-only logo</title>
    <path class="st0" d="M13.2,6.5c0,3.8-3,5.8-6.8,5.8H3.6v5.1H0V0.7h6.7C10.8,0.7,13.2,3.1,13.2,6.5z M6.4,4H3.6v5.1h2.9
	C7.9,9.4,9.2,8.4,9.4,7c0-0.2,0-0.3,0-0.5C9.4,5,8.3,4,6.4,4L6.4,4z M19.5,14.1h9.1v3.4H15.9V0.7h12.6V4h-9v3.4h7.3v3.3h-7.3
	L19.5,14.1z M39.7,0c2.2-0.1,4.4,0.7,6.1,2.2l-1.9,2.6c-0.5-0.5-1.1-0.8-1.8-1.1c-0.7-0.2-1.4-0.3-2.2-0.3c-3-0.1-5.5,2.2-5.7,5.2
	c0,0.1,0,0.3,0,0.4c0,1.5,0.6,3,1.7,4.1c1,0.9,2.3,1.5,3.7,1.4c1.2,0,2.5-0.3,3.6-0.9v-3.1h-3.8V7.5h7.3v7.8c-1.8,1.8-4.4,2.8-7,2.7
	c-2.4,0-4.8-0.9-6.5-2.6c-1.7-1.7-2.7-4-2.7-6.4c0-2.4,0.9-4.7,2.7-6.4C35,0.9,37.3,0,39.7,0z M59,0.7L66,17.5h-3.8l-1.5-3.8h-6.9
	l-1.5,3.7h-3.8l7.2-16.7H59z M59.4,10.5l-2.2-5.4L55,10.5H59.4z M64.5,2c0,0.7-0.5,1.2-1.1,1.3c0,0-0.1,0-0.1,0
	c-0.7,0-1.2-0.5-1.3-1.2C62,2,62,2,62,2c0-0.7,0.6-1.2,1.3-1.2c0,0,0,0,0,0C64,0.7,64.6,1.2,64.5,2C64.6,1.9,64.6,1.9,64.5,2L64.5,2
	z M63.3,0.9c-0.6,0-1,0.4-1,1c0,0,0,0,0,0c-0.1,0.6,0.3,1.1,0.9,1.2c0.6,0.1,1.1-0.3,1.2-0.9c0-0.1,0-0.2,0-0.3
	C64.3,1.4,63.9,0.9,63.3,0.9C63.3,0.9,63.3,0.9,63.3,0.9z M62.9,2.6V1.2h0.4c0.2,0,0.3,0.1,0.4,0.1c0.1,0.1,0.1,0.2,0.1,0.3
	c0,0.1,0,0.2-0.1,0.3c0,0-0.1,0.1-0.2,0.1l0.4,0.6h-0.3l-0.3-0.5h-0.2v0.5L62.9,2.6z M63.1,1.9h0.4c0.1,0,0.1-0.1,0.1-0.2h-0.1
	c-0.1-0.3-0.1-0.3-0.2-0.3h-0.2L63.1,1.9z"/>
</svg>
